# xmcd
#
# Track frame offsets:
#	150
#	13906
#	27200
#	40159
#	55120
#	68755
#	81529
#	95101
#	107834
#	118928
#	132402
#	146262
#	159534
#	172626
#	183373
#	202926
#	214660
#	226040
#	239843
#	265139
#
# Disc length: 3677 seconds
#
# Revision: 2
# Processed by: cddbd v1.4PL0 Copyright (c) Steve Scherf et al.
# Submitted via: MusicWizard 6.0.2
#
DISCID=170e5b14
DTITLE=Etta James - Her Best
DYEAR=1900
DGENRE=Blues
TTITLE0=At Last
TTITLE1=All I Could Do Is Cry
TTITLE2=If I Can't Have You
TTITLE3=A Sunday Kind Of Love
TTITLE4=My Dearest Darling
TTITLE5=Something's Got A Hold On Me
TTITLE6=Trust In Me
TTITLE7=Next Door To The Blues
TTITLE8=Don't Cry Baby
TTITLE9=Fool That I Am
TTITLE10=Two Sides To Every Story
TTITLE11=Pushover
TTITLE12=Stop The Wedding
TTITLE13=In The Basement, Part One
TTITLE14=Baby, What You Want Me To Do
TTITLE15=I'd Rather Go Blind
TTITLE16=Security
TTITLE17=Loser's Weepers, Part One
TTITLE18=All The Way Down
TTITLE19=Tell Mama
EXTD=
EXTT0=
EXTT1=
EXTT2=
EXTT3=
EXTT4=
EXTT5=
EXTT6=
EXTT7=
EXTT8=
EXTT9=
EXTT10=
EXTT11=
EXTT12=
EXTT13=
EXTT14=
EXTT15=
EXTT16=
EXTT17=
EXTT18=
EXTT19=
PLAYORDER=
